<?xml version="1.0" encoding="UTF-8"?>
<svg xmlns="http://www.w3.org/2000/svg" xmlns:xlink="http://www.w3.org/1999/xlink" width="150px" height="150px" viewBox="0 0 150 150" version="1.1">
<g id="surface1">
<path style=" stroke:none;fill-rule:nonzero;fill:rgb(0%,0%,0%);fill-opacity:1;" d="M 96 9 C 99.304688 12.773438 101.863281 16.78125 104.554688 21.011719 C 108.449219 26.082031 112.34375 28.605469 117.75 31.96875 C 122.46875 35.226562 122.46875 35.226562 126 39 C 126.738281 44.5625 126.292969 49.453125 125.765625 55.023438 C 125.558594 60.09375 125.558594 60.09375 128.671875 63.804688 C 133.574219 68.0625 138.675781 71.488281 144.1875 74.90625 C 147 78 147 78 147.21875 81.148438 C 146.804688 85.910156 146.308594 90.011719 144.007812 94.253906 C 141.179688 100.34375 141.113281 107.214844 140.34375 113.824219 C 139.5 118.5 139.5 118.5 136.5 121.5 C 133.789062 121.8125 131.066406 122.050781 128.34375 122.25 C 116.269531 123.984375 110.183594 131.183594 102 139.5 C 92.503906 144.246094 76.285156 142.425781 66 141 C 61.695312 138.699219 59.296875 136.390625 55.980469 132.878906 C 50.878906 129.390625 45.800781 129.957031 39.84375 130.03125 C 30.289062 130.042969 25.085938 128.902344 17.8125 122.0625 C 14.238281 118.253906 14.238281 118.253906 12 114 C 12.332031 106.449219 14.316406 101.0625 18 94.5 C 16.527344 93.523438 15.054688 92.542969 13.535156 91.535156 C 8.367188 86.367188 8.15625 81.105469 8.121094 74.121094 C 8.148438 69.722656 8.285156 65.332031 8.4375 60.9375 C 8.484375 58.667969 8.523438 56.394531 8.558594 54.121094 C 8.660156 48.582031 8.8125 43.039062 9 37.5 C 12.773438 35.613281 15.664062 35.785156 19.875 35.625 C 25.671875 35.179688 29.039062 34.816406 33.1875 30.65625 C 38.527344 26.128906 41.324219 26.292969 48.070312 26.589844 C 51 27 51 27 54 28.5 C 54.175781 27.117188 54.175781 27.117188 54.351562 25.703125 C 55.234375 21.511719 56.136719 18.597656 58.5 15 C 64.324219 12.339844 70.195312 11.417969 76.5 10.5 C 91.773438 7.523438 91.773438 7.523438 96 9 Z M 64.5 21 C 63.992188 23.125 63.492188 25.25 63 27.375 C 62.722656 28.558594 62.441406 29.742188 62.15625 30.960938 C 61.316406 34.882812 61.316406 34.882812 61.5 40.5 C 56.394531 38.910156 52.480469 37.488281 48 34.5 C 42.644531 33.65625 40.933594 34.1875 36.46875 37.40625 C 35.324219 38.425781 34.179688 39.449219 33 40.5 C 29.347656 42.324219 26.371094 42.480469 22.3125 42.84375 C 20.949219 42.96875 19.582031 43.09375 18.175781 43.226562 C 17.128906 43.316406 16.078125 43.40625 15 43.5 C 15.585938 47.160156 16.105469 49.097656 18.734375 51.78125 C 19.636719 52.417969 20.539062 53.058594 21.46875 53.71875 C 22.359375 54.378906 23.25 55.039062 24.171875 55.71875 C 26.933594 57.25 26.933594 57.25 29.960938 56.738281 C 33.539062 55.28125 36.15625 53.394531 39.1875 51 C 44.78125 46.609375 44.78125 46.609375 48 45 C 48.496094 46.980469 48.988281 48.960938 49.5 51 C 46.925781 53.273438 44.328125 55.515625 41.71875 57.75 C 40.273438 59.003906 38.828125 60.257812 37.34375 61.546875 C 32.691406 64.710938 30.957031 65.433594 25.5 64.5 C 21.707031 62.855469 18.519531 60.710938 15 58.5 C 14.757812 62.128906 14.578125 65.742188 14.4375 69.375 C 14.363281 70.398438 14.285156 71.421875 14.210938 72.472656 C 14.015625 75.925781 14.015625 75.925781 15 81 C 19.308594 84.8125 19.308594 84.8125 24 87 C 25.980469 83.535156 27.960938 80.070312 30 76.5 C 37.609375 77.167969 41.300781 79.210938 46.875 84.375 C 48.789062 86.105469 48.789062 86.105469 50.742188 87.867188 C 54.007812 91.507812 55.523438 94.378906 57 99 C 61.453125 97.515625 65.910156 96.03125 70.5 94.5 C 70.003906 92.023438 69.511719 89.550781 69 87 C 72.710938 86.257812 72.710938 86.257812 76.5 85.5 C 76.5 89.953125 76.5 94.410156 76.5 99 C 73.664062 100.265625 70.816406 101.511719 67.96875 102.75 C 66.386719 103.445312 64.800781 104.140625 63.171875 104.859375 C 58.714844 106.425781 55.660156 106.847656 51 106.5 C 50.785156 104.738281 50.566406 102.972656 50.34375 101.15625 C 48.289062 92.492188 41.597656 88.671875 34.5 84 C 29.6875 89.554688 26.605469 95.015625 23.625 101.71875 C 22.84375 103.460938 22.0625 105.203125 21.257812 106.996094 C 20.679688 108.320312 20.097656 109.640625 19.5 111 C 26.054688 119.382812 26.054688 119.382812 35.304688 123.796875 C 39.394531 123.8125 39.394531 123.8125 45 123 C 42.523438 119.535156 40.050781 116.070312 37.5 112.5 C 38.984375 111.511719 40.46875 110.519531 42 109.5 C 42.925781 110.460938 43.851562 111.421875 44.804688 112.414062 C 48.8125 116.503906 52.882812 120.515625 57 124.5 C 58.695312 126.148438 58.695312 126.148438 60.421875 127.835938 C 70.152344 136.417969 72.382812 135 87 135 C 87.988281 123.121094 88.980469 111.238281 90 99 C 93.527344 99.246094 97.054688 99.496094 100.6875 99.75 C 112.144531 100.507812 123.519531 100.660156 135 100.5 C 135.464844 98.644531 135.929688 96.789062 136.40625 94.875 C 137.4375 90.75 138.46875 86.625 139.5 82.5 C 131.332031 75.074219 131.332031 75.074219 123 67.5 C 118.296875 72.203125 117.089844 74.035156 116.851562 80.550781 C 116.871094 82.027344 116.886719 83.507812 116.90625 85.03125 C 116.917969 86.523438 116.933594 88.011719 116.945312 89.550781 C 116.964844 90.6875 116.980469 91.828125 117 93 C 115.019531 93 113.039062 93 111 93 C 111.222656 78.566406 112.945312 67.316406 118.414062 53.886719 C 120.339844 49.335938 120.339844 49.335938 120 43.5 C 116.253906 40.144531 116.253906 40.144531 111.46875 37.03125 C 104.207031 31.933594 99.058594 27.152344 94.5 19.5 C 92.195312 22.953125 90.625 25.769531 89.0625 29.53125 C 88.382812 31.171875 87.703125 32.8125 87 34.5 C 82.050781 34.996094 77.101562 35.488281 72 36 C 72 34.019531 72 32.039062 72 30 C 74.96875 30 77.941406 30 81 30 C 84.300781 24.292969 84.300781 24.292969 85.5 18 C 78.199219 17.527344 71.535156 19.28125 64.5 21 Z M 96 106.5 C 94.84375 115.601562 94.355469 124.328125 94.5 133.5 C 96.34375 132.125 98.1875 130.75 100.03125 129.375 C 101.144531 128.554688 102.253906 127.730469 103.398438 126.882812 C 106.65625 124.476562 106.65625 124.476562 109.875 121.21875 C 116.5625 116.808594 124.234375 115.636719 132 114 C 132.496094 112.019531 132.988281 110.039062 133.5 108 C 120.964844 106.867188 108.585938 106.296875 96 106.5 Z M 96 106.5 "/>
<path style=" stroke:none;fill-rule:nonzero;fill:rgb(0%,0%,0%);fill-opacity:1;" d="M 78.039062 50.148438 C 81.613281 50.15625 84.964844 50.480469 88.5 51 C 89.667969 51.125 90.835938 51.25 92.039062 51.382812 C 94.867188 51.695312 97.683594 52.089844 100.5 52.5 C 100.003906 54.976562 99.511719 57.449219 99 60 C 97.019531 59.792969 97.019531 59.792969 95 59.578125 C 89.613281 59.242188 84.828125 59.113281 79.5 60 C 76.65625 62.925781 75.355469 65.632812 73.65625 69.316406 C 73.109375 70.203125 72.5625 71.085938 72 72 C 65.5625 73.128906 61.023438 72.535156 55.5 69 C 55.996094 67.019531 56.488281 65.039062 57 63 C 58.578125 63.246094 60.15625 63.496094 61.78125 63.75 C 63.667969 63.503906 65.554688 63.253906 67.5 63 C 69.507812 60.308594 69.507812 60.308594 71.0625 57 C 74.164062 51.234375 74.164062 51.234375 78.039062 50.148438 Z M 78.039062 50.148438 "/>
</g>
</svg>
